<svg width="662" height="277" viewBox="0 0 662 277" fill="none" xmlns="http://www.w3.org/2000/svg">
<path d="M40 42C40 40.8954 40.8954 40 42 40H620C621.105 40 622 40.8954 622 42V235C622 236.105 621.105 237 620 237H42C40.8954 237 40 236.105 40 235V42Z" fill="white"/>
<path d="M42 41H620V39H42V41ZM621 42V235H623V42H621ZM620 236H42V238H620V236ZM41 235V42H39V235H41ZM42 236C41.4477 236 41 235.552 41 235H39C39 236.657 40.3432 238 42 238V236ZM621 235C621 235.552 620.552 236 620 236V238C621.657 238 623 236.657 623 235H621ZM620 41C620.552 41 621 41.4477 621 42H623C623 40.3431 621.657 39 620 39V41ZM42 39C40.3431 39 39 40.3431 39 42H41C41 41.4477 41.4477 41 42 41V39Z" fill="black" fill-opacity="0.1"/>
<g filter="url(#filter0_d_0_1)">
<path d="M280.175 155.184C253.139 163.937 221.684 153.401 220.981 73.1795H185V220H214.017V174.051H280.175C280.175 174.051 280.175 162.552 280.175 155.184Z" fill="#E0B930"/>
<path d="M306 143C308.321 140.538 306 66 306 66L280.175 73.1795C280.175 73.1795 280.175 123.159 280.175 155.184C288.853 152.375 303.679 145.462 306 143Z" fill="#E0B930"/>
<path d="M306 66C306 66 308.321 140.538 306 143C303.679 145.462 288.853 152.375 280.175 155.184C280.175 162.552 280.175 174.051 280.175 174.051V220H306V66Z" fill="#E0B930"/>
<path d="M306 66C306 66 308.321 140.538 306 143C303.679 145.462 288.853 152.375 280.175 155.184M306 66V220H280.175V174.051M306 66L280.175 73.1795C280.175 73.1795 280.175 123.159 280.175 155.184M280.175 174.051H214.017V220H185V73.1795H220.981C221.684 153.401 253.139 163.937 280.175 155.184M280.175 174.051C280.175 174.051 280.175 162.552 280.175 155.184" stroke="black"/>
</g>
<path d="M87.7375 228H198L190.664 199.509H113.412V167.088H172.326V143.509H116.162H93.2392V93.1579L186.08 83.3333L172.326 46L60 70.5614L87.7375 228Z" fill="#E0B930"/>
<path fill-rule="evenodd" clip-rule="evenodd" d="M173.22 45L187.347 83.3445L94.3149 93.1893V142.59H173.401V167.169H114.488V198.59H191.628L199.221 228.081H87.8936L60.0835 70.2307C60.0835 70.2307 60.0835 70.2307 60.0835 70.2307L60 69.757L173.22 45ZM61.1514 70.5288L88.7328 227.081H197.931L190.853 199.59H113.488V166.169H172.401V143.59H93.3149V92.2895L185.964 82.4852L172.583 46.163L61.1514 70.5288Z" fill="black"/>
<g filter="url(#filter1_d_0_1)">
<path d="M506.002 188.168C507.474 188.168 508.866 188.984 510.178 190.616C511.522 192.248 512.194 193.8 512.194 195.272C512.194 196.744 511.858 198.472 511.186 200.456C510.514 202.44 509.618 204.36 508.498 206.216C507.378 208.072 505.97 209.64 504.274 210.92C502.578 212.2 500.802 212.84 498.946 212.84C497.122 212.84 495.042 211.96 492.706 210.2C492.066 211.992 491.538 212.888 491.122 212.888C490.45 212.888 489.602 212.328 488.578 211.208C487.554 210.088 487.042 209.176 487.042 208.472C487.042 207.768 487.57 205.464 488.626 201.56C491.794 189.848 493.378 181.368 493.378 176.12C493.378 175.16 493.842 174.68 494.77 174.68C495.506 174.68 496.498 175.384 497.746 176.792C498.994 178.168 499.618 179.464 499.618 180.68C499.618 183.528 498.802 187.96 497.17 193.976C500.818 190.104 503.762 188.168 506.002 188.168ZM498.226 207.32C499.986 207.32 501.778 205.944 503.602 203.192C505.458 200.44 506.386 197.736 506.386 195.08C506.386 194.888 506.338 194.776 506.242 194.744C506.178 194.68 505.97 194.648 505.618 194.648C503.858 194.648 501.97 195.704 499.954 197.816C497.97 199.928 496.21 202.568 494.674 205.736C496.018 206.792 497.202 207.32 498.226 207.32Z" fill="black"/>
</g>
<g filter="url(#filter2_d_0_1)">
<path d="M483.309 199.256C483.885 199.768 484.173 200.232 484.173 200.648C484.173 201.064 483.981 201.928 483.597 203.24C483.213 204.552 482.957 205.576 482.829 206.312C482.701 207.016 482.589 207.576 482.493 207.992C482.429 208.408 482.381 208.744 482.349 209C482.317 209.224 482.253 209.512 482.157 209.864C482.093 210.216 482.029 210.504 481.965 210.728C481.933 210.92 481.869 211.16 481.773 211.448C481.709 211.704 481.629 211.912 481.533 212.072C481.437 212.2 481.325 212.344 481.197 212.504C481.005 212.76 480.685 212.888 480.237 212.888C479.789 212.888 479.229 212.44 478.557 211.544C477.917 210.648 477.437 209.56 477.117 208.28C474.109 211.352 471.581 212.888 469.533 212.888C468.157 212.888 466.669 212.136 465.069 210.632C463.469 209.096 462.669 207.576 462.669 206.072C462.669 204.536 463.357 202.36 464.733 199.544C466.109 196.728 467.981 194.12 470.349 191.72C472.749 189.32 475.117 188.12 477.453 188.12C478.797 188.12 480.349 188.904 482.109 190.472C483.869 192.04 484.749 193.48 484.749 194.792C484.749 196.072 484.269 197.56 483.309 199.256ZM469.341 206.84C470.621 206.84 472.317 205.976 474.429 204.248C476.573 202.488 477.901 200.28 478.413 197.624C478.445 197.24 478.717 197.016 479.229 196.952C479.133 195.128 478.829 194.216 478.317 194.216C477.037 194.216 475.597 195.048 473.997 196.712C472.429 198.376 471.133 200.152 470.109 202.04C469.117 203.928 468.621 205.32 468.621 206.216C468.621 206.472 468.653 206.648 468.717 206.744C468.813 206.808 469.021 206.84 469.341 206.84Z" fill="black"/>
</g>
<g filter="url(#filter3_d_0_1)">
<path d="M455.815 188.168C457.031 188.168 458.231 188.888 459.415 190.328C460.599 191.768 461.191 193.064 461.191 194.216C461.191 194.984 460.855 195.368 460.183 195.368C459.799 195.368 459.239 195.224 458.503 194.936C457.767 194.616 457.015 194.456 456.247 194.456C455.511 194.456 454.407 194.712 452.935 195.224C451.495 195.736 450.775 196.408 450.775 197.24C450.775 197.56 451.207 198.024 452.071 198.632C452.935 199.24 453.879 199.864 454.903 200.504C455.927 201.144 456.871 202.04 457.735 203.192C458.599 204.312 459.031 205.544 459.031 206.888C459.031 208.2 458.055 209.528 456.103 210.872C454.183 212.216 451.911 212.888 449.287 212.888C446.695 212.888 444.471 212.296 442.615 211.112C440.759 209.928 439.831 208.712 439.831 207.464C439.831 206.216 440.343 205.592 441.367 205.592C441.783 205.592 442.279 205.752 442.855 206.072C444.455 207 446.439 207.464 448.807 207.464C451.207 207.464 452.407 207.144 452.407 206.504C452.407 205.864 451.943 205.16 451.015 204.392C450.119 203.592 449.127 202.856 448.039 202.184C446.983 201.512 445.991 200.696 445.063 199.736C444.167 198.744 443.719 197.784 443.719 196.856C443.719 195.128 445.287 193.256 448.423 191.24C451.559 189.192 454.023 188.168 455.815 188.168Z" fill="black"/>
</g>
<g filter="url(#filter4_d_0_1)">
<path d="M432.738 182.12C432.738 181.288 433.106 180.44 433.842 179.576C434.61 178.68 435.346 178.232 436.05 178.232C436.786 178.232 437.65 179.096 438.642 180.824C439.634 182.552 440.13 183.816 440.13 184.616C440.13 185.384 439.874 185.976 439.362 186.392C438.85 186.808 438.322 187.016 437.778 187.016C436.85 187.016 435.778 186.408 434.562 185.192C433.346 183.976 432.738 182.952 432.738 182.12ZM433.458 188.12C434.578 188.12 435.57 188.76 436.434 190.04C437.33 191.32 437.778 192.552 437.778 193.736C437.778 194.344 437.218 196.536 436.098 200.312C435.01 204.056 433.922 207.608 432.834 210.968C432.45 212.216 431.666 212.84 430.482 212.84C429.778 212.84 429.154 212.584 428.61 212.072C428.098 211.528 427.842 210.84 427.842 210.008C427.842 209.144 428.242 207.032 429.042 203.672C429.874 200.28 430.498 197.4 430.914 195.032C431.362 192.632 431.762 190.888 432.114 189.8C432.498 188.68 432.946 188.12 433.458 188.12Z" fill="black"/>
</g>
<g filter="url(#filter5_d_0_1)">
<mask id="path-11-inside-1_0_1" fill="white">
<path d="M402.625 212.84C401.953 212.84 401.009 212.088 399.793 210.584C398.577 209.048 397.969 207.88 397.969 207.08C397.969 206.248 398.449 203.768 399.409 199.64C398.641 198.872 398.257 197.912 398.257 196.76C398.257 196.12 399.025 195.48 400.561 194.84C402.577 186.648 403.585 181.464 403.585 179.288C403.585 178.232 404.049 177.704 404.977 177.704C405.745 177.704 406.737 178.472 407.953 180.008C409.201 181.544 409.825 182.984 409.825 184.328C409.825 185.192 409.249 188.072 408.097 192.968C410.849 192.488 413.585 192.2 416.305 192.104C417.841 185.672 418.609 181.4 418.609 179.288C418.609 178.232 419.073 177.704 420.001 177.704C420.769 177.704 421.761 178.472 422.977 180.008C424.225 181.544 424.849 182.984 424.849 184.328C424.849 185 424.225 187.752 422.977 192.584C424.577 192.968 425.377 193.592 425.377 194.456C425.377 195.448 424.193 196.232 421.825 196.808C420.673 201.224 419.921 204.152 419.569 205.592C419.217 207 418.945 208.072 418.753 208.808C418.593 209.512 418.417 210.2 418.225 210.872C417.873 212.184 417.537 212.84 417.217 212.84C416.449 212.84 415.521 212.232 414.433 211.016C413.377 209.8 412.849 208.584 412.849 207.368C412.849 206.664 413.521 203.544 414.865 198.008C411.185 198.616 408.353 199.176 406.369 199.688C405.377 203.496 404.721 206.152 404.401 207.656C404.081 209.128 403.825 210.2 403.633 210.872C403.281 212.184 402.945 212.84 402.625 212.84Z"/>
</mask>
<path d="M402.625 212.84C401.953 212.84 401.009 212.088 399.793 210.584C398.577 209.048 397.969 207.88 397.969 207.08C397.969 206.248 398.449 203.768 399.409 199.64C398.641 198.872 398.257 197.912 398.257 196.76C398.257 196.12 399.025 195.48 400.561 194.84C402.577 186.648 403.585 181.464 403.585 179.288C403.585 178.232 404.049 177.704 404.977 177.704C405.745 177.704 406.737 178.472 407.953 180.008C409.201 181.544 409.825 182.984 409.825 184.328C409.825 185.192 409.249 188.072 408.097 192.968C410.849 192.488 413.585 192.2 416.305 192.104C417.841 185.672 418.609 181.4 418.609 179.288C418.609 178.232 419.073 177.704 420.001 177.704C420.769 177.704 421.761 178.472 422.977 180.008C424.225 181.544 424.849 182.984 424.849 184.328C424.849 185 424.225 187.752 422.977 192.584C424.577 192.968 425.377 193.592 425.377 194.456C425.377 195.448 424.193 196.232 421.825 196.808C420.673 201.224 419.921 204.152 419.569 205.592C419.217 207 418.945 208.072 418.753 208.808C418.593 209.512 418.417 210.2 418.225 210.872C417.873 212.184 417.537 212.84 417.217 212.84C416.449 212.84 415.521 212.232 414.433 211.016C413.377 209.8 412.849 208.584 412.849 207.368C412.849 206.664 413.521 203.544 414.865 198.008C411.185 198.616 408.353 199.176 406.369 199.688C405.377 203.496 404.721 206.152 404.401 207.656C404.081 209.128 403.825 210.2 403.633 210.872C403.281 212.184 402.945 212.84 402.625 212.84Z" fill="black"/>
<path d="M399.793 210.584L399.009 211.205L399.015 211.213L399.793 210.584ZM399.409 199.64L400.383 199.867L400.509 199.326L400.116 198.933L399.409 199.64ZM400.561 194.84L400.945 195.763L401.411 195.569L401.532 195.079L400.561 194.84ZM407.953 180.008L407.169 180.629L407.177 180.639L407.953 180.008ZM408.097 192.968L407.123 192.739L406.776 194.213L408.269 193.953L408.097 192.968ZM416.305 192.104L416.34 193.103L417.101 193.077L417.277 192.336L416.305 192.104ZM422.977 180.008L422.193 180.629L422.201 180.639L422.977 180.008ZM422.977 192.584L422.009 192.334L421.754 193.319L422.743 193.556L422.977 192.584ZM421.825 196.808L421.588 195.836L421.008 195.978L420.857 196.556L421.825 196.808ZM419.569 205.592L420.539 205.835L420.54 205.829L419.569 205.592ZM418.753 208.808L417.785 208.556L417.781 208.571L417.778 208.586L418.753 208.808ZM418.225 210.872L417.263 210.597L417.261 210.605L417.259 210.613L418.225 210.872ZM414.433 211.016L413.678 211.672L413.683 211.677L413.688 211.683L414.433 211.016ZM414.865 198.008L415.837 198.244L416.193 196.775L414.702 197.021L414.865 198.008ZM406.369 199.688L406.119 198.72L405.549 198.867L405.401 199.436L406.369 199.688ZM404.401 207.656L405.378 207.868L405.379 207.864L404.401 207.656ZM403.633 210.872L402.671 210.597L402.669 210.605L402.667 210.613L403.633 210.872ZM402.625 211.84C402.635 211.84 402.456 211.828 402.036 211.494C401.644 211.182 401.156 210.68 400.57 209.955L399.015 211.213C399.645 211.992 400.237 212.618 400.79 213.058C401.314 213.476 401.942 213.84 402.625 213.84V211.84ZM400.577 209.963C399.991 209.223 399.576 208.602 399.312 208.094C399.04 207.571 398.969 207.247 398.969 207.08H396.969C396.969 207.713 397.202 208.373 397.538 209.018C397.881 209.678 398.378 210.409 399.009 211.205L400.577 209.963ZM398.969 207.08C398.969 206.776 399.067 206.043 399.311 204.786C399.547 203.564 399.904 201.925 400.383 199.867L398.435 199.413C397.954 201.483 397.59 203.148 397.347 204.406C397.11 205.629 396.969 206.552 396.969 207.08H398.969ZM400.116 198.933C399.548 198.365 399.257 197.665 399.257 196.76H397.257C397.257 198.159 397.734 199.379 398.702 200.347L400.116 198.933ZM399.257 196.76C399.257 196.871 399.189 196.805 399.473 196.568C399.746 196.341 400.217 196.067 400.945 195.763L400.176 193.917C399.368 194.253 398.688 194.619 398.193 195.032C397.709 195.435 397.257 196.009 397.257 196.76H399.257ZM401.532 195.079C402.542 190.975 403.302 187.614 403.81 184.999C404.314 182.408 404.585 180.483 404.585 179.288H402.585C402.585 180.269 402.351 182.024 401.847 184.617C401.348 187.186 400.596 190.513 399.59 194.601L401.532 195.079ZM404.585 179.288C404.585 178.885 404.676 178.769 404.684 178.76C404.686 178.758 404.692 178.75 404.722 178.738C404.759 178.724 404.837 178.704 404.977 178.704V176.704C404.323 176.704 403.66 176.896 403.182 177.44C402.725 177.959 402.585 178.635 402.585 179.288H404.585ZM404.977 178.704C405.038 178.704 405.262 178.743 405.685 179.071C406.091 179.386 406.586 179.893 407.169 180.629L408.737 179.387C408.103 178.587 407.494 177.942 406.909 177.489C406.34 177.049 405.684 176.704 404.977 176.704V178.704ZM407.177 180.639C408.346 182.078 408.825 183.3 408.825 184.328H410.825C410.825 182.668 410.056 181.01 408.729 179.377L407.177 180.639ZM408.825 184.328C408.825 184.642 408.705 185.474 408.412 186.94C408.127 188.364 407.698 190.295 407.123 192.739L409.07 193.197C409.647 190.745 410.082 188.788 410.373 187.332C410.656 185.918 410.825 184.878 410.825 184.328H408.825ZM408.269 193.953C410.977 193.481 413.667 193.198 416.34 193.103L416.269 191.105C413.503 191.202 410.721 191.495 407.925 191.983L408.269 193.953ZM417.277 192.336C418.808 185.928 419.609 181.539 419.609 179.288H417.609C417.609 181.261 416.874 185.416 415.332 191.872L417.277 192.336ZM419.609 179.288C419.609 178.885 419.7 178.769 419.708 178.76C419.71 178.758 419.716 178.75 419.746 178.738C419.783 178.724 419.861 178.704 420.001 178.704V176.704C419.347 176.704 418.684 176.896 418.206 177.44C417.749 177.959 417.609 178.635 417.609 179.288H419.609ZM420.001 178.704C420.062 178.704 420.286 178.743 420.709 179.071C421.115 179.386 421.61 179.893 422.193 180.629L423.761 179.387C423.127 178.587 422.518 177.942 421.933 177.489C421.364 177.049 420.708 176.704 420.001 176.704V178.704ZM422.201 180.639C423.37 182.078 423.849 183.3 423.849 184.328H425.849C425.849 182.668 425.08 181.01 423.753 179.377L422.201 180.639ZM423.849 184.328C423.849 184.394 423.827 184.61 423.748 185.043C423.674 185.451 423.56 185.993 423.406 186.675C423.097 188.037 422.632 189.921 422.009 192.334L423.945 192.834C424.57 190.415 425.041 188.507 425.356 187.117C425.513 186.423 425.634 185.849 425.716 185.401C425.793 184.978 425.849 184.598 425.849 184.328H423.849ZM422.743 193.556C423.481 193.733 423.923 193.942 424.162 194.128C424.366 194.288 424.377 194.388 424.377 194.456H426.377C426.377 193.66 425.987 193.016 425.392 192.551C424.83 192.114 424.073 191.819 423.21 191.612L422.743 193.556ZM424.377 194.456C424.377 194.486 424.379 194.661 423.937 194.954C423.486 195.252 422.729 195.559 421.588 195.836L422.061 197.78C423.289 197.481 424.307 197.108 425.041 196.622C425.782 196.131 426.377 195.418 426.377 194.456H424.377ZM420.857 196.556C419.705 200.97 418.952 203.906 418.597 205.355L420.54 205.829C420.89 204.398 421.64 201.478 422.792 197.06L420.857 196.556ZM418.599 205.349C418.247 206.757 417.976 207.825 417.785 208.556L419.72 209.06C419.914 208.319 420.187 207.243 420.539 205.835L418.599 205.349ZM417.778 208.586C417.622 209.273 417.45 209.943 417.263 210.597L419.186 211.147C419.383 210.457 419.564 209.751 419.728 209.03L417.778 208.586ZM417.259 210.613C417.089 211.248 416.938 211.659 416.819 211.892C416.758 212.011 416.731 212.032 416.753 212.01C416.774 211.989 416.932 211.84 417.217 211.84V213.84C417.661 213.84 417.982 213.609 418.167 213.424C418.353 213.238 418.492 213.013 418.599 212.804C418.815 212.381 419.009 211.808 419.191 211.131L417.259 210.613ZM417.217 211.84C417.096 211.84 416.863 211.79 416.493 211.548C416.127 211.308 415.688 210.92 415.178 210.349L413.688 211.683C414.265 212.328 414.834 212.852 415.397 213.22C415.955 213.586 416.569 213.84 417.217 213.84V211.84ZM415.188 210.36C414.238 209.266 413.849 208.274 413.849 207.368H411.849C411.849 208.894 412.516 210.334 413.678 211.672L415.188 210.36ZM413.849 207.368C413.849 207.292 413.874 207.047 413.96 206.56C414.041 206.1 414.164 205.485 414.33 204.711C414.664 203.163 415.165 201.009 415.837 198.244L413.893 197.772C413.22 200.543 412.714 202.717 412.375 204.289C412.206 205.075 412.077 205.718 411.99 206.214C411.907 206.683 411.849 207.092 411.849 207.368H413.849ZM414.702 197.021C411.012 197.631 408.146 198.197 406.119 198.72L406.619 200.656C408.56 200.155 411.357 199.601 415.028 198.995L414.702 197.021ZM405.401 199.436C404.409 203.243 403.748 205.919 403.423 207.448L405.379 207.864C405.694 206.385 406.344 203.749 407.336 199.94L405.401 199.436ZM403.424 207.444C403.104 208.913 402.854 209.958 402.671 210.597L404.594 211.147C404.796 210.442 405.057 209.343 405.378 207.868L403.424 207.444ZM402.667 210.613C402.497 211.248 402.346 211.659 402.227 211.892C402.166 212.011 402.139 212.032 402.161 212.01C402.182 211.989 402.34 211.84 402.625 211.84V213.84C403.069 213.84 403.39 213.609 403.575 213.424C403.761 213.238 403.9 213.013 404.007 212.804C404.223 212.381 404.417 211.808 404.599 211.131L402.667 210.613Z" fill="black" mask="url(#path-11-inside-1_0_1)"/>
</g>
<g filter="url(#filter6_d_0_1)">
<path d="M596.404 99.0974C596.949 102.186 595.326 105.331 591.537 108.534C587.81 111.726 583.741 113.71 579.329 114.488C577.243 114.856 575.32 115.122 573.561 115.287C570.575 115.567 567.819 117.762 568.34 120.715V120.715C568.64 122.417 569.14 123.596 569.841 124.252C570.53 124.846 572.009 124.942 574.278 124.542C579.005 123.709 582.961 122.556 586.146 121.085C589.394 119.602 591.081 118.85 591.207 118.828C593.791 118.372 595.233 118.995 595.533 120.697C595.967 123.155 594.33 125.848 590.622 128.776C586.977 131.694 582.476 133.625 577.119 134.569C571.824 135.503 567.275 134.583 563.472 131.809C559.669 129.035 557.367 125.379 556.567 120.841C555.755 116.24 556.234 111.217 558.003 105.771C559.836 100.314 562.474 95.5595 565.919 91.5078C569.353 87.393 573.055 84.9856 577.026 84.2854C581.059 83.5742 585.128 84.9038 589.232 88.2745C593.324 91.582 595.715 95.1897 596.404 99.0974ZM585.17 99.5185C585.059 98.8882 584.236 98.091 582.702 97.1269C581.167 96.1627 579.801 95.7862 578.603 95.9974C577.469 96.1974 576.138 97.3095 574.61 99.3335C573.49 100.76 572.468 102.445 571.542 104.389C571.043 105.436 571.876 106.542 573.018 106.34V106.34C581.653 104.818 585.704 102.544 585.17 99.5185Z" fill="black"/>
</g>
<g filter="url(#filter7_d_0_1)">
<path d="M525.405 101L524.829 90.152C524.829 86.568 525.949 84.776 528.189 84.776C529.469 84.776 530.717 85.256 531.933 86.216C533.213 87.176 534.173 88.68 534.813 90.728C536.989 88.808 539.357 87.272 541.917 86.12C544.541 84.904 546.845 84.296 548.829 84.296C553.501 84.296 555.837 85.416 555.837 87.656C555.837 88.808 555.613 89.672 555.165 90.248C554.781 90.76 554.461 91.144 554.205 91.4C554.013 91.656 553.629 92.008 553.053 92.456C552.541 92.84 552.157 93.128 551.901 93.32C550.429 94.28 549.373 94.952 548.733 95.336C545.853 97.128 543.389 99.304 541.341 101.864C539.293 104.36 537.757 107.848 536.733 112.328C535.005 119.688 533.309 125.192 531.645 128.84C530.045 132.424 528.221 134.216 526.173 134.216C524.189 134.216 522.685 133.256 521.661 131.336C520.701 129.416 520.221 127.624 520.221 125.96C520.221 124.232 520.829 121.672 522.045 118.28C523.325 114.888 524.189 111.976 524.637 109.544C525.149 107.048 525.405 104.2 525.405 101Z" fill="black"/>
</g>
<g filter="url(#filter8_d_0_1)">
<path d="M504.595 72.776C504.595 71.112 505.331 69.416 506.803 67.688C508.339 65.896 509.811 65 511.219 65C512.691 65 514.419 66.728 516.403 70.184C518.387 73.64 519.38 76.168 519.38 77.768C519.38 79.304 518.867 80.488 517.843 81.32C516.819 82.152 515.763 82.568 514.675 82.568C512.819 82.568 510.675 81.352 508.243 78.92C505.811 76.488 504.595 74.44 504.595 72.776ZM506.035 84.776C508.275 84.776 510.26 86.056 511.988 88.616C513.78 91.176 514.675 93.64 514.675 96.008C514.675 97.224 513.556 101.608 511.316 109.16C509.14 116.648 506.963 123.752 504.787 130.472C504.019 132.968 502.451 134.216 500.083 134.216C498.675 134.216 497.427 133.704 496.339 132.68C495.315 131.592 494.803 130.216 494.803 128.552C494.803 126.824 495.603 122.6 497.203 115.88C498.867 109.096 500.115 103.336 500.947 98.6C501.843 93.8 502.643 90.312 503.347 88.136C504.115 85.896 505.011 84.776 506.035 84.776Z" fill="black"/>
</g>
<g filter="url(#filter9_d_0_1)">
<path d="M478.379 84.872C480.747 84.872 483.275 86.984 485.963 91.208C488.715 95.432 490.091 99.656 490.091 103.88C490.091 106.44 489.003 109.48 486.827 113C484.651 116.52 481.899 119.848 478.571 122.984C475.307 126.056 471.499 128.68 467.147 130.856C462.859 133.032 458.763 134.12 454.859 134.12H453.707C449.675 150.888 446.827 159.272 445.163 159.272C443.819 159.272 442.411 158.152 440.939 155.912C439.403 153.672 438.635 151.816 438.635 150.344C438.635 148.872 439.563 144.36 441.419 136.808C446.923 114.408 449.675 97.512 449.675 86.12C449.675 84.2 450.603 83.24 452.459 83.24C453.995 83.24 455.947 84.104 458.315 85.832C460.683 87.56 462.155 89.8 462.731 92.552C468.171 87.432 473.387 84.872 478.379 84.872ZM456.683 122.696C461.675 121.736 466.379 118.984 470.795 114.44C475.275 109.896 477.515 105.96 477.515 102.632C477.515 99.304 476.587 97.64 474.731 97.64C472.043 97.64 469.195 99.176 466.187 102.248C464.971 103.528 463.627 105.416 462.155 107.912C460.683 110.408 459.403 113.32 458.315 116.648L456.683 122.696Z" fill="black"/>
</g>
<g filter="url(#filter10_d_0_1)">
<path d="M429.483 84.776C431.979 84.776 434.059 86.44 435.723 89.768C437.387 93.096 438.219 96.136 438.219 98.888C438.219 101.64 437.675 105.736 436.587 111.176C435.563 116.552 433.899 121.768 431.595 126.824C429.355 131.816 426.923 134.312 424.299 134.312C422.187 134.312 421.131 132.872 421.131 129.992C421.131 127.112 421.963 122.408 423.627 115.88C425.291 109.352 426.123 105.064 426.123 103.016C426.123 100.968 425.803 99.944 425.163 99.944C423.819 99.944 422.219 101.416 420.363 104.36C418.507 107.304 416.267 111.24 413.643 116.168C411.083 121.096 409.483 124.264 408.843 125.672C408.203 127.08 407.659 128.2 407.211 129.032C406.827 129.864 406.379 130.728 405.867 131.624C403.819 135.016 401.099 135.016 397.707 131.624C395.979 129.896 395.115 128.328 395.115 126.92C395.115 126.664 395.627 124.232 396.651 119.624C397.739 114.952 398.283 109.64 398.283 103.688C398.283 101.192 397.995 99.944 397.419 99.944C396.651 99.944 395.755 100.712 394.731 102.248C393.707 103.784 392.139 106.568 390.027 110.6C387.915 114.632 386.091 117.96 384.555 120.584C379.179 129.736 375.083 134.312 372.267 134.312C370.859 134.312 369.099 133.128 366.987 130.76C364.939 128.392 363.915 126.6 363.915 125.384C363.915 124.104 364.619 121.096 366.027 116.36C367.499 111.56 368.427 106.472 368.811 101.096C369.259 95.72 369.643 91.528 369.963 88.52C370.347 85.512 371.115 84.008 372.267 84.008C374.699 84.008 377.035 85.032 379.275 87.08C381.579 89.064 382.731 90.888 382.731 92.552C382.731 96.328 381.355 102.92 378.603 112.328C383.083 101.64 386.859 94.408 389.931 90.632C393.195 86.728 396.331 84.776 399.339 84.776C401.003 84.776 403.051 86.312 405.483 89.384C407.979 92.456 409.227 95.336 409.227 98.024C409.227 100.648 409.195 102.952 409.131 104.936C411.115 99.944 414.123 95.336 418.155 91.112C422.187 86.888 425.963 84.776 429.483 84.776Z" fill="black"/>
</g>
<g filter="url(#filter11_d_0_1)">
<path d="M333.408 93.896C336.8 93.896 340.448 93.736 344.352 93.416C348.256 93.032 350.656 92.84 351.552 92.84C352.512 92.84 353.248 93.064 353.76 93.512C354.336 93.96 354.624 94.504 354.624 95.144C354.624 97.96 351.968 100.2 346.656 101.864C341.344 103.528 335.68 104.488 329.664 104.744C327.168 112.488 325.92 117.384 325.92 119.432C325.92 120.52 326.464 121.064 327.552 121.064C334.848 121.064 342.368 120.104 350.112 118.184C352.736 117.48 354.24 117.128 354.624 117.128C355.84 117.128 356.448 117.992 356.448 119.72C356.448 122.024 354.752 124.264 351.36 126.44C347.968 128.616 343.712 130.344 338.592 131.624C333.472 132.904 328.448 133.544 323.52 133.544C320.576 133.544 317.92 132.456 315.552 130.28C313.184 128.04 312 125.448 312 122.504C312 119.496 313.632 112.008 316.896 100.04C320.224 88.072 321.984 79.048 322.176 72.968C322.112 72.776 322.08 72.392 322.08 71.816C322.08 70.92 322.208 70.216 322.464 69.704C323.168 67.912 325.12 66.792 328.32 66.344C331.52 65.832 337.28 65.576 345.6 65.576C359.424 65.576 366.336 67.112 366.336 70.184C366.336 72.168 364.64 73.544 361.248 74.312C358.944 74.824 355.776 75.304 351.744 75.752C345.536 76.456 340 77.48 335.136 78.824C335.136 83.176 334.368 88.2 332.832 93.896H333.408Z" fill="black"/>
</g>
<defs>
<filter id="filter0_d_0_1" x="180.5" y="65.3476" width="131.032" height="163.152" filterUnits="userSpaceOnUse" color-interpolation-filters="sRGB">
<feFlood flood-opacity="0" result="BackgroundImageFix"/>
<feColorMatrix in="SourceAlpha" type="matrix" values="0 0 0 0 0 0 0 0 0 0 0 0 0 0 0 0 0 0 127 0" result="hardAlpha"/>
<feOffset dy="4"/>
<feGaussianBlur stdDeviation="2"/>
<feComposite in2="hardAlpha" operator="out"/>
<feColorMatrix type="matrix" values="0 0 0 0 0 0 0 0 0 0 0 0 0 0 0 0 0 0 0.25 0"/>
<feBlend mode="normal" in2="BackgroundImageFix" result="effect1_dropShadow_0_1"/>
<feBlend mode="normal" in="SourceGraphic" in2="effect1_dropShadow_0_1" result="shape"/>
</filter>
<filter id="filter1_d_0_1" x="483.042" y="174.68" width="33.152" height="46.208" filterUnits="userSpaceOnUse" color-interpolation-filters="sRGB">
<feFlood flood-opacity="0" result="BackgroundImageFix"/>
<feColorMatrix in="SourceAlpha" type="matrix" values="0 0 0 0 0 0 0 0 0 0 0 0 0 0 0 0 0 0 127 0" result="hardAlpha"/>
<feOffset dy="4"/>
<feGaussianBlur stdDeviation="2"/>
<feComposite in2="hardAlpha" operator="out"/>
<feColorMatrix type="matrix" values="0 0 0 0 0 0 0 0 0 0 0 0 0 0 0 0 0 0 0.25 0"/>
<feBlend mode="normal" in2="BackgroundImageFix" result="effect1_dropShadow_0_1"/>
<feBlend mode="normal" in="SourceGraphic" in2="effect1_dropShadow_0_1" result="shape"/>
</filter>
<filter id="filter2_d_0_1" x="458.669" y="188.12" width="30.08" height="32.768" filterUnits="userSpaceOnUse" color-interpolation-filters="sRGB">
<feFlood flood-opacity="0" result="BackgroundImageFix"/>
<feColorMatrix in="SourceAlpha" type="matrix" values="0 0 0 0 0 0 0 0 0 0 0 0 0 0 0 0 0 0 127 0" result="hardAlpha"/>
<feOffset dy="4"/>
<feGaussianBlur stdDeviation="2"/>
<feComposite in2="hardAlpha" operator="out"/>
<feColorMatrix type="matrix" values="0 0 0 0 0 0 0 0 0 0 0 0 0 0 0 0 0 0 0.25 0"/>
<feBlend mode="normal" in2="BackgroundImageFix" result="effect1_dropShadow_0_1"/>
<feBlend mode="normal" in="SourceGraphic" in2="effect1_dropShadow_0_1" result="shape"/>
</filter>
<filter id="filter3_d_0_1" x="435.831" y="188.168" width="29.36" height="32.72" filterUnits="userSpaceOnUse" color-interpolation-filters="sRGB">
<feFlood flood-opacity="0" result="BackgroundImageFix"/>
<feColorMatrix in="SourceAlpha" type="matrix" values="0 0 0 0 0 0 0 0 0 0 0 0 0 0 0 0 0 0 127 0" result="hardAlpha"/>
<feOffset dy="4"/>
<feGaussianBlur stdDeviation="2"/>
<feComposite in2="hardAlpha" operator="out"/>
<feColorMatrix type="matrix" values="0 0 0 0 0 0 0 0 0 0 0 0 0 0 0 0 0 0 0.25 0"/>
<feBlend mode="normal" in2="BackgroundImageFix" result="effect1_dropShadow_0_1"/>
<feBlend mode="normal" in="SourceGraphic" in2="effect1_dropShadow_0_1" result="shape"/>
</filter>
<filter id="filter4_d_0_1" x="423.842" y="178.232" width="20.288" height="42.608" filterUnits="userSpaceOnUse" color-interpolation-filters="sRGB">
<feFlood flood-opacity="0" result="BackgroundImageFix"/>
<feColorMatrix in="SourceAlpha" type="matrix" values="0 0 0 0 0 0 0 0 0 0 0 0 0 0 0 0 0 0 127 0" result="hardAlpha"/>
<feOffset dy="4"/>
<feGaussianBlur stdDeviation="2"/>
<feComposite in2="hardAlpha" operator="out"/>
<feColorMatrix type="matrix" values="0 0 0 0 0 0 0 0 0 0 0 0 0 0 0 0 0 0 0.25 0"/>
<feBlend mode="normal" in2="BackgroundImageFix" result="effect1_dropShadow_0_1"/>
<feBlend mode="normal" in="SourceGraphic" in2="effect1_dropShadow_0_1" result="shape"/>
</filter>
<filter id="filter5_d_0_1" x="393.969" y="177.704" width="35.408" height="43.136" filterUnits="userSpaceOnUse" color-interpolation-filters="sRGB">
<feFlood flood-opacity="0" result="BackgroundImageFix"/>
<feColorMatrix in="SourceAlpha" type="matrix" values="0 0 0 0 0 0 0 0 0 0 0 0 0 0 0 0 0 0 127 0" result="hardAlpha"/>
<feOffset dy="4"/>
<feGaussianBlur stdDeviation="2"/>
<feComposite in2="hardAlpha" operator="out"/>
<feColorMatrix type="matrix" values="0 0 0 0 0 0 0 0 0 0 0 0 0 0 0 0 0 0 0.25 0"/>
<feBlend mode="normal" in2="BackgroundImageFix" result="effect1_dropShadow_0_1"/>
<feBlend mode="normal" in="SourceGraphic" in2="effect1_dropShadow_0_1" result="shape"/>
</filter>
<filter id="filter6_d_0_1" x="552.184" y="84.0995" width="48.3226" height="58.8223" filterUnits="userSpaceOnUse" color-interpolation-filters="sRGB">
<feFlood flood-opacity="0" result="BackgroundImageFix"/>
<feColorMatrix in="SourceAlpha" type="matrix" values="0 0 0 0 0 0 0 0 0 0 0 0 0 0 0 0 0 0 127 0" result="hardAlpha"/>
<feOffset dy="4"/>
<feGaussianBlur stdDeviation="2"/>
<feComposite in2="hardAlpha" operator="out"/>
<feColorMatrix type="matrix" values="0 0 0 0 0 0 0 0 0 0 0 0 0 0 0 0 0 0 0.25 0"/>
<feBlend mode="normal" in2="BackgroundImageFix" result="effect1_dropShadow_0_1"/>
<feBlend mode="normal" in="SourceGraphic" in2="effect1_dropShadow_0_1" result="shape"/>
</filter>
<filter id="filter7_d_0_1" x="516.221" y="84.296" width="43.616" height="57.92" filterUnits="userSpaceOnUse" color-interpolation-filters="sRGB">
<feFlood flood-opacity="0" result="BackgroundImageFix"/>
<feColorMatrix in="SourceAlpha" type="matrix" values="0 0 0 0 0 0 0 0 0 0 0 0 0 0 0 0 0 0 127 0" result="hardAlpha"/>
<feOffset dy="4"/>
<feGaussianBlur stdDeviation="2"/>
<feComposite in2="hardAlpha" operator="out"/>
<feColorMatrix type="matrix" values="0 0 0 0 0 0 0 0 0 0 0 0 0 0 0 0 0 0 0.25 0"/>
<feBlend mode="normal" in2="BackgroundImageFix" result="effect1_dropShadow_0_1"/>
<feBlend mode="normal" in="SourceGraphic" in2="effect1_dropShadow_0_1" result="shape"/>
</filter>
<filter id="filter8_d_0_1" x="490.803" y="65" width="32.576" height="77.216" filterUnits="userSpaceOnUse" color-interpolation-filters="sRGB">
<feFlood flood-opacity="0" result="BackgroundImageFix"/>
<feColorMatrix in="SourceAlpha" type="matrix" values="0 0 0 0 0 0 0 0 0 0 0 0 0 0 0 0 0 0 127 0" result="hardAlpha"/>
<feOffset dy="4"/>
<feGaussianBlur stdDeviation="2"/>
<feComposite in2="hardAlpha" operator="out"/>
<feColorMatrix type="matrix" values="0 0 0 0 0 0 0 0 0 0 0 0 0 0 0 0 0 0 0.25 0"/>
<feBlend mode="normal" in2="BackgroundImageFix" result="effect1_dropShadow_0_1"/>
<feBlend mode="normal" in="SourceGraphic" in2="effect1_dropShadow_0_1" result="shape"/>
</filter>
<filter id="filter9_d_0_1" x="434.635" y="83.24" width="59.456" height="84.032" filterUnits="userSpaceOnUse" color-interpolation-filters="sRGB">
<feFlood flood-opacity="0" result="BackgroundImageFix"/>
<feColorMatrix in="SourceAlpha" type="matrix" values="0 0 0 0 0 0 0 0 0 0 0 0 0 0 0 0 0 0 127 0" result="hardAlpha"/>
<feOffset dy="4"/>
<feGaussianBlur stdDeviation="2"/>
<feComposite in2="hardAlpha" operator="out"/>
<feColorMatrix type="matrix" values="0 0 0 0 0 0 0 0 0 0 0 0 0 0 0 0 0 0 0.25 0"/>
<feBlend mode="normal" in2="BackgroundImageFix" result="effect1_dropShadow_0_1"/>
<feBlend mode="normal" in="SourceGraphic" in2="effect1_dropShadow_0_1" result="shape"/>
</filter>
<filter id="filter10_d_0_1" x="359.915" y="84.008" width="82.304" height="58.304" filterUnits="userSpaceOnUse" color-interpolation-filters="sRGB">
<feFlood flood-opacity="0" result="BackgroundImageFix"/>
<feColorMatrix in="SourceAlpha" type="matrix" values="0 0 0 0 0 0 0 0 0 0 0 0 0 0 0 0 0 0 127 0" result="hardAlpha"/>
<feOffset dy="4"/>
<feGaussianBlur stdDeviation="2"/>
<feComposite in2="hardAlpha" operator="out"/>
<feColorMatrix type="matrix" values="0 0 0 0 0 0 0 0 0 0 0 0 0 0 0 0 0 0 0.25 0"/>
<feBlend mode="normal" in2="BackgroundImageFix" result="effect1_dropShadow_0_1"/>
<feBlend mode="normal" in="SourceGraphic" in2="effect1_dropShadow_0_1" result="shape"/>
</filter>
<filter id="filter11_d_0_1" x="308" y="65.576" width="62.336" height="75.968" filterUnits="userSpaceOnUse" color-interpolation-filters="sRGB">
<feFlood flood-opacity="0" result="BackgroundImageFix"/>
<feColorMatrix in="SourceAlpha" type="matrix" values="0 0 0 0 0 0 0 0 0 0 0 0 0 0 0 0 0 0 127 0" result="hardAlpha"/>
<feOffset dy="4"/>
<feGaussianBlur stdDeviation="2"/>
<feComposite in2="hardAlpha" operator="out"/>
<feColorMatrix type="matrix" values="0 0 0 0 0 0 0 0 0 0 0 0 0 0 0 0 0 0 0.25 0"/>
<feBlend mode="normal" in2="BackgroundImageFix" result="effect1_dropShadow_0_1"/>
<feBlend mode="normal" in="SourceGraphic" in2="effect1_dropShadow_0_1" result="shape"/>
</filter>
</defs>
</svg>
